<?xml version="1.0" encoding="utf-8"?>
<!-- Generator: Adobe Illustrator 26.0.2, SVG Export Plug-In . SVG Version: 6.00 Build 0)  -->
<svg version="1.1" id="Ebene_1" xmlns="http://www.w3.org/2000/svg" xmlns:xlink="http://www.w3.org/1999/xlink" x="0px" y="0px"
	 viewBox="0 0 520 580" style="enable-background:new 0 0 520 580;" xml:space="preserve">
<style type="text/css">
	.st0{fill:#94D600;}
	.st1{fill:#5A8C00;}
	.st2{fill:#82BE00;}
	.st3{fill:none;stroke:#000000;stroke-width:2;stroke-linejoin:round;stroke-miterlimit:10;}
	.st4{fill:none;stroke:#000000;stroke-linejoin:round;stroke-miterlimit:10;stroke-dasharray:3;}
</style>
<path class="st0" d="M447.3,61.7C428.6,51.7,324.9,10,324.9,10S308.3,30.5,260,30.5S195.1,10,195.1,10S91.4,51.7,72.7,61.7
	S5,212.5,5,212.5s5,4,10.4,9.4c5.3,5.3,17.7,9.4,30.4,14.7c12.7,5.3,13.7,8,23.7,14c10,6,18.7,3.3,20.7,0.7
	c2-2.7,13.7-23.4,13.7-23.4s4.3,191.1,2.2,196.4c-2.1,5.3-1.2,12,1.4,16.7c2.7,4.7-2.7,9.4-3.3,16c-0.7,6.7,0,101.6,0,101.6
	s9.4,11.4,46.1,11.4c18,0,62.6-2,109.7-2s91.6,2,109.7,2c36.7,0,46.1-11.4,46.1-11.4s0.7-94.9,0-101.6c-0.7-6.7-6-11.4-3.3-16
	c2.7-4.7,3.6-11.4,1.4-16.7c-2.1-5.3,2.2-196.4,2.2-196.4s11.7,20.7,13.7,23.4c2,2.7,10.7,5.3,20.7-0.7c10-6,10.9-9.4,23.6-14.7
	c12.7-5.3,25.2-8.7,30.6-14c5.3-5.3,10.4-9.4,10.4-9.4S466.1,71.7,447.3,61.7z"/>
<path class="st1" d="M258.6,74.9c56.1,0,64.9-63.4,64.9-63.4v0c-4.9,4.7-23.1,19-63.5,19c-48.3,0-64.9-20.4-64.9-20.4
	S202.5,74.9,258.6,74.9z"/>
<path class="st1" d="M45.8,223.5c17.7,12.4,24.7,17,30.4,19c5.7,2,14,8.7,14,8.7v0c-2,2.7-10.7,5.3-20.7-0.7
	c-10-6-10.9-9.4-23.6-14.7c-12.7-5.3-25.2-8.7-30.6-14C10,216.5,5,212.5,5,212.5C19.4,210.5,28.1,211.2,45.8,223.5z"/>
<path class="st1" d="M474.2,223.5c-17.7,12.4-24.7,17-30.4,19c-5.7,2-14,8.7-14,8.7v0c2,2.7,10.7,5.3,20.7-0.7
	c10-6,10.9-9.4,23.6-14.7c12.7-5.3,25.2-8.7,30.6-14c5.3-5.3,10.4-9.4,10.4-9.4C500.6,210.5,491.9,211.2,474.2,223.5z"/>
<path class="st1" d="M368,551.3c-29.5-0.3-73.7-5.4-108-6.8s-60.9,0-72.3,2.9c-11.4,2.9-26.6,4.8-43.3,4.3s-25.7,1.9-40.2,7
	c0,0,9.4,11.4,46.1,11.4c18,0,62.6-2,109.7-2s91.6,2,109.7,2c36.7,0,46.1-11.4,46.1-11.4C411.6,550,397.5,551.6,368,551.3z"/>
<path class="st2" d="M356.5,459.3c8.6,4.9,30.7,14.1,59.5,11.5c0-7.2-0.1-12.3-0.3-13.7c-0.7-6.7-6-11.4-3.3-16
	c2.1-3.7,3.1-8.6,2.4-13.1c-9.1,4-13,6-12.1,11.6c1.3,8,12.2,14.3,1.3,14.3c-10.9,0-29.4,5.9-64.2-8.8
	c-34.9-14.7-81.9-34.9-81.9-34.9S346.8,453.8,356.5,459.3z"/>
<path class="st2" d="M165.4,366.5c0,0-18.5-13.9-25.6-21.4c-6.3-6.7-18.8-33.3-34.7-60c0.2,10.1,0.4,20.9,0.6,31.9
	c7.6,8.1,15.3,19.2,23.2,27.6C140.2,356.8,165.4,366.5,165.4,366.5z"/>
<path class="st2" d="M119.6,366.5c0,0,2.5,18.1,33.6,34.4c31.1,16.4,42.4,13.9,81.5,25.6c39.1,11.8,29.8,13.9,50,30.2
	s75.2,31.9,75.2,31.9s-10.5-5.9-45.4-23.1c-34.9-17.2-24.4-23.9-44.5-36.5c-20.2-12.6-47-25.6-79.8-31.5
	C157.4,391.7,133.9,377.8,119.6,366.5z"/>
<path class="st2" d="M445.1,190.5c-16.4,6.7-20.2,8.8-24.8,18.5c-4.6,9.7-1.5,7.7-10.9,21.4c-11.8,17.2-38.6,25.6-38.6,25.6
	s19.3,3.8,27.3-2.5c7-5.5,12.7-3.6,17.7-9.8c0.2-9.8,0.3-15.8,0.3-15.8s2,3.5,4.5,7.9c3.9-6.2,6.4-8.9,7.7-19.2
	C430,204,445.1,190.5,445.1,190.5z"/>
<path class="st2" d="M141.1,489.5c-21.4-3.4-18.5-10-37.1-16.9c0,4,0,8.6,0,13.5c8.3,1.6,17.5,5.3,28.3,9.2
	c13.9,5,43.7-0.4,43.7-0.4S164.6,493.3,141.1,489.5z"/>
<path class="st2" d="M118.4,250.6c10.9,18.5,47,17.6,47,17.6s-39.9-8.8-45.8-36.5c-2-9.5-15.5-23.5-22.7-31.1
	c-7.1-7.6-17.2-30.7-17.2-30.7s8,40.7,19.3,51.2C110.4,231.7,107.5,232.1,118.4,250.6z"/>
<path class="st2" d="M127.6,457.2c0,0-9.5-9.2-21.2-18.5c0.3,0.8,0.7,1.7,1.1,2.4c2.6,4.5-2.3,9-3.2,15.3
	C115.6,458.9,127.6,457.2,127.6,457.2z"/>
<path class="st2" d="M47.4,183.4c-8.4-10.1-9.2-40.3-9.2-40.3s-5.5,26.5,0.4,41.6s26.9,22.3,26.9,22.3S55.8,193.5,47.4,183.4z"/>
<path class="st2" d="M381.7,531.1c15.4,0,26.5-0.6,34.3-1.3c0-3.4,0-6.9,0-10.5c-33.4,1.9-55.6-1-83.9-5
	c-29.8-4.2-46.6-10.9-73.9-14.3c-10.1-1.2-55.9-2.9-55.9-2.9s64.7,9.7,88.6,19.3C314.9,526,342.6,531.1,381.7,531.1z"/>
<path class="st2" d="M191.9,450c0,0-18.1-5-43.3-16.4c-22.5-10.1-31.6-26.3-42-48.5c0.2,21.9,0.1,37.7-0.5,39.1
	c-0.4,1.1-0.7,2.3-0.9,3.5c9-0.9,12.1-0.4,16.9,5.4c5.9,7.1,7.6,12.6,32.8,16.4C180.1,453.4,191.9,450,191.9,450z"/>
<path class="st3" d="M447.3,61.7C428.6,51.7,324.9,10,324.9,10S308.3,30.5,260,30.5S195.1,10,195.1,10S91.4,51.7,72.7,61.7
	S5,212.5,5,212.5s5,4,10.4,9.4c5.3,5.3,17.7,9.4,30.4,14.7c12.7,5.3,13.7,8,23.7,14c10,6,18.7,3.3,20.7,0.7
	c2-2.7,13.7-23.4,13.7-23.4s4.3,191.1,2.2,196.4c-2.1,5.3-1.2,12,1.4,16.7c2.7,4.7-2.7,9.4-3.3,16c-0.7,6.7,0,101.6,0,101.6
	s9.4,11.4,46.1,11.4c18,0,62.6-2,109.7-2s91.6,2,109.7,2c36.7,0,46.1-11.4,46.1-11.4s0.7-94.9,0-101.6c-0.7-6.7-6-11.4-3.3-16
	c2.7-4.7,3.6-11.4,1.4-16.7c-2.1-5.3,2.2-196.4,2.2-196.4s11.7,20.7,13.7,23.4c2,2.7,10.7,5.3,20.7-0.7c10-6,10.9-9.4,23.6-14.7
	c12.7-5.3,25.2-8.7,30.6-14c5.3-5.3,10.4-9.4,10.4-9.4S466.1,71.7,447.3,61.7z"/>
<path class="st3" d="M103.9,227.9c0-36.4,5.9-91.5-31.3-166.2"/>
<path class="st3" d="M415.8,227.9c0-36.4-5.9-91.5,31.3-166.2"/>
<path class="st3" d="M195.1,10c0,0,7.3,64.9,63.5,64.9s64.9-63.4,64.9-63.4"/>
<path class="st3" d="M5,212.5c14.4-2,23.1-1.3,40.8,11s24.7,17,30.4,19c5.7,2,14,8.7,14,8.7"/>
<path class="st3" d="M515,212.5c-14.4-2-23.1-1.3-40.8,11s-24.7,17-30.4,19c-5.7,2-14,8.7-14,8.7"/>
<path class="st3" d="M104.2,558.6c14.5-5.1,23.5-7.5,40.2-7c16.7,0.5,31.9-1.4,43.3-4.3c11.4-2.9,38-4.3,72.3-2.9s78.5,6.5,108,6.8
	c29.5,0.3,43.6-1.3,47.7,7.4"/>
<path class="st4" d="M104.2,549.4c14.5-5.1,23.5-7.5,40.2-7c16.7,0.5,31.9-1.4,43.3-4.3c11.4-2.9,38-4.3,72.3-2.9s78.5,6.5,108,6.8
	s43.6-1.3,47.7,7.4"/>
<path class="st4" d="M104.2,544.9c14.5-5.1,23.5-7.5,40.2-7s31.9-1.4,43.3-4.3c11.4-2.9,38-4.3,72.3-2.9s78.5,6.5,108,6.8
	c29.5,0.3,43.6-1.3,47.7,7.4"/>
<path class="st3" d="M178.7,16.6c0,0,10,76.6,80.6,76.6s82-76.6,82-76.6"/>
<path class="st4" d="M112,556c6.7,3,18.6,6.3,38.3,6.3c18,0,62.6-2,109.7-2s91.6,2,109.7,2c23.7,0,36.1-4.7,41.8-8.1"/>
<path class="st4" d="M117.4,554.2c7.1,2.3,17.7,4.3,33,4.3c18,0,62.6-2,109.7-2s91.6,2,109.7,2c18.8,0,30.4-3,37.3-5.9"/>
<path class="st4" d="M511.9,203.8c-14.4-2-25.2-0.5-42.9,11.9s-24.7,17-30.4,19c-5.7,2-14,8.7-14,8.7"/>
<path class="st4" d="M510.9,199.6c-14.4-2-25.2-0.5-42.9,11.9s-24.7,17-30.4,19c-5.7,2-14,8.7-14,8.7"/>
<path class="st4" d="M7.5,203.8c14.4-2,25.2-0.5,42.9,11.9s24.7,17,30.4,19c5.7,2,14,8.7,14,8.7"/>
<path class="st4" d="M8.5,199.6c14.4-2,25.2-0.5,42.9,11.9s24.7,17,30.4,19c5.7,2,14,8.7,14,8.7"/>
<path class="st4" d="M183,14.9c0,0,11.4,73.5,77,73.5s77-73.5,77-73.5"/>
<path class="st4" d="M187.3,13.1c0,0,11.9,71.7,72,71.7s74.8-71.1,74.8-71.1"/>
<path class="st3" d="M198.5,27.3c0,0,15.9,16.2,58.7,16.2s61-13.6,61-13.6"/>
</svg>
